<?xml version="1.0" standalone="no"?>
<!DOCTYPE svg PUBLIC "-//W3C//DTD SVG 20010904//EN"
 "http://www.w3.org/TR/2001/REC-SVG-20010904/DTD/svg10.dtd">
<svg version="1.0" xmlns="http://www.w3.org/2000/svg"
 width="50.000000pt" height="50.000000pt" viewBox="0 0 50.000000 50.000000"
 preserveAspectRatio="xMidYMid meet">

<g transform="translate(0.000000,50.000000) scale(0.100000,-0.100000)"
fill="#000000" stroke="none">
<path d="M5 467 c-3 -7 -4 -96 -3 -197 l3 -185 245 0 245 0 0 195 0 195 -243
3 c-192 2 -244 0 -247 -11z m445 -167 l0 -130 -200 0 -200 0 0 130 0 130 200
0 200 0 0 -130z m-4 -161 c10 -17 -13 -36 -27 -22 -12 12 -4 33 11 33 5 0 12
-5 16 -11z"/>
<path d="M183 360 c-10 -24 -24 -40 -44 -47 -37 -14 -37 -32 0 -39 22 -5 33
-15 40 -36 9 -26 14 -29 33 -23 29 9 47 9 75 0 17 -5 24 -1 35 21 7 16 24 31
37 34 36 8 38 29 4 42 -18 7 -34 24 -44 47 -15 36 -17 37 -69 37 -52 0 -53 -1
-67 -36z m39 -122 c-9 -9 -15 -9 -24 0 -9 9 -7 12 12 12 19 0 21 -3 12 -12z
m73 2 c-3 -5 -10 -10 -16 -10 -5 0 -9 5 -9 10 0 6 7 10 16 10 8 0 12 -4 9 -10z"/>
<path d="M160 61 c-29 -5 -36 -11 -38 -34 l-3 -27 131 0 131 0 -3 27 c-3 24
-9 29 -43 35 -47 8 -126 8 -175 -1z"/>
</g>
</svg>
